<svg width="27" height="31" viewBox="0 0 27 31" fill="none" xmlns="http://www.w3.org/2000/svg">
<path d="M2 11.0166V5.48837C2 3.5618 3.5618 2 5.48837 2H19.4419C21.3684 2 22.9302 3.5618 22.9302 5.48837V11.0166H15.2695M2 11.0166H8.63475M2 11.0166V16.9538M15.2695 11.0166H8.63475M15.2695 11.0166V16.9538M8.63475 11.0166V28.5116M8.63475 28.5116H5.48837C3.5618 28.5116 2 26.9498 2 25.0233V22.7327M8.63475 28.5116H15.2695V22.7327M2 16.9538V22.7327M2 16.9538H8.63475H15.2695M15.2695 16.9538V22.7327M15.2695 16.9538H17.6977M2 22.7327H8.63475H15.2695" stroke="white" stroke-width="2.7907"/>
<rect x="17.3496" y="5.48837" width="2.7907" height="2.7907" rx="0.697675" fill="white"/>
<path d="M23.2144 14.6888V17.068H21.9145V14.6888H23.2144ZM23.0509 28.04V30.2475H21.751V28.04H23.0509ZM23.5987 25.3092C23.5987 25.0094 23.5524 24.7614 23.4597 24.5652C23.3671 24.369 23.2172 24.1973 23.01 24.0501C22.8029 23.903 22.5277 23.7558 22.1843 23.6086C21.4593 23.3143 20.8189 23.0118 20.2629 22.7011C19.7124 22.3904 19.2791 22.0035 18.963 21.5402C18.6523 21.0769 18.497 20.4746 18.497 19.7333C18.497 19.0574 18.6632 18.4688 18.9957 17.9673C19.3336 17.4658 19.7969 17.0789 20.3856 16.8063C20.9797 16.5283 21.6637 16.3894 22.4377 16.3894C23.0264 16.3894 23.5633 16.4766 24.0484 16.651C24.5335 16.8254 24.9532 17.0789 25.3075 17.4113C25.6617 17.7384 25.9343 18.1417 26.125 18.6214C26.3158 19.0956 26.4112 19.6352 26.4112 20.2402H23.6559C23.6559 19.9295 23.6232 19.6624 23.5578 19.439C23.4979 19.2155 23.4107 19.0329 23.2962 18.8912C23.1817 18.7495 23.0482 18.6459 22.8956 18.5805C22.743 18.5096 22.5767 18.4742 22.3968 18.4742C22.1243 18.4742 21.9036 18.5342 21.7346 18.6541C21.5656 18.7685 21.443 18.9211 21.3667 19.1119C21.2904 19.3027 21.2522 19.5153 21.2522 19.7496C21.2522 19.9949 21.2931 20.2102 21.3749 20.3955C21.4621 20.5754 21.6092 20.7444 21.8164 20.9024C22.0235 21.0551 22.3069 21.2131 22.6667 21.3766C23.3752 21.6764 24.0075 21.9871 24.5635 22.3087C25.1194 22.6303 25.5555 23.0254 25.8716 23.4942C26.1932 23.9575 26.354 24.5571 26.354 25.2929C26.354 26.0015 26.1877 26.6065 25.8552 27.1079C25.5228 27.6039 25.0595 27.9827 24.4653 28.2444C23.8712 28.506 23.1845 28.6368 22.405 28.6368C21.8818 28.6368 21.3612 28.5687 20.8434 28.4324C20.3311 28.2962 19.8623 28.0754 19.4372 27.7702C19.0175 27.4595 18.6823 27.048 18.4315 26.5356C18.1808 26.0233 18.0555 25.3937 18.0555 24.647H20.8107C20.8107 25.0122 20.8543 25.3174 20.9415 25.5627C21.0288 25.808 21.1459 26.0042 21.2931 26.1513C21.4457 26.2931 21.6174 26.3966 21.8082 26.462C21.999 26.522 22.1979 26.552 22.405 26.552C22.683 26.552 22.9092 26.4975 23.0836 26.3884C23.258 26.274 23.3861 26.1241 23.4679 25.9388C23.5551 25.748 23.5987 25.5382 23.5987 25.3092Z" fill="white"/>
</svg>
