<svg width="10" height="16" viewBox="0 0 10 16" fill="none" xmlns="http://www.w3.org/2000/svg">
<path d="M9.32679 1.38297C9.32679 1.28258 9.28691 1.18631 9.21593 1.11533C9.14495 1.04435 9.04868 1.00448 8.9483 1.00448H7.05585C6.1029 0.957006 5.1699 1.28864 4.46071 1.92692C3.75151 2.56519 3.32377 3.45823 3.27094 4.41089V6.45474H1.37849C1.27811 6.45474 1.18184 6.49461 1.11086 6.5656C1.03988 6.63658 1 6.73285 1 6.83323V8.80138C1 8.90176 1.03988 8.99803 1.11086 9.06901C1.18184 9.13999 1.27811 9.17987 1.37849 9.17987H3.27094V14.2516C3.27094 14.352 3.31082 14.4483 3.3818 14.5193C3.45278 14.5903 3.54905 14.6301 3.64943 14.6301H5.92038C6.02076 14.6301 6.11703 14.5903 6.18801 14.5193C6.25899 14.4483 6.29887 14.352 6.29887 14.2516V9.17987H8.28216C8.36632 9.18108 8.44849 9.15419 8.51567 9.10347C8.58285 9.05274 8.6312 8.98107 8.65308 8.89979L9.1981 6.93164C9.21316 6.87571 9.21519 6.81708 9.20402 6.76025C9.19285 6.70342 9.16879 6.64991 9.13369 6.60384C9.09859 6.55777 9.05339 6.52037 9.00156 6.49452C8.94974 6.46867 8.89267 6.45506 8.83475 6.45474H6.29887V4.41089C6.31769 4.22352 6.40569 4.04989 6.54566 3.92392C6.68563 3.79794 6.86753 3.72866 7.05585 3.72961H8.9483C9.04868 3.72961 9.14495 3.68973 9.21593 3.61875C9.28691 3.54777 9.32679 3.4515 9.32679 3.35112V1.38297Z" stroke="white" stroke-width="1.13584"/>
</svg>
