<svg width="14" height="14" viewBox="0 0 14 14" fill="none" xmlns="http://www.w3.org/2000/svg">
<path d="M6.80146 13.6301C4.9424 13.6301 4.72324 13.6203 3.99775 13.5886C3.43199 13.57 2.87356 13.455 2.3465 13.2485C1.89548 13.073 1.48588 12.8056 1.14372 12.4633C0.801559 12.121 0.534318 11.7113 0.358966 11.2602C0.160444 10.7312 0.0533672 10.1723 0.0423202 9.60744C-5.63054e-09 8.88347 0 8.64617 0 6.80146C0 4.93711 0.00982433 4.71946 0.0423202 3.99775C0.0536088 3.43362 0.160682 2.87551 0.358966 2.34726C0.534117 1.8956 0.801539 1.48542 1.14415 1.14294C1.48677 0.800456 1.89704 0.533189 2.34877 0.35821C2.87675 0.158854 3.435 0.0514978 3.99926 0.0408087C4.72097 -7.60123e-08 4.95827 0 6.80146 0C8.67564 0 8.89102 0.00982426 9.60518 0.0408087C10.1705 0.0513888 10.7312 0.158701 11.2602 0.35821C11.7118 0.533392 12.122 0.80073 12.4646 1.14319C12.8072 1.48565 13.0746 1.89571 13.25 2.34726C13.4518 2.88382 13.5598 3.45061 13.5682 4.02269C13.6105 4.74667 13.6105 4.9832 13.6105 6.82716C13.6105 8.67111 13.5999 8.91294 13.5682 9.6286C13.5569 10.194 13.4495 10.7534 13.2508 11.2829C13.075 11.7343 12.8072 12.1442 12.4645 12.4866C12.1219 12.829 11.7117 13.0965 11.2602 13.2719C10.7312 13.4699 10.1727 13.5772 9.6082 13.5886C8.88649 13.6301 8.64995 13.6301 6.80146 13.6301ZM6.77577 1.1963C4.92728 1.1963 4.73533 1.20537 4.01362 1.23787C3.58259 1.2435 3.15573 1.323 2.75157 1.47289C2.45679 1.58589 2.18895 1.75939 1.96533 1.98223C1.74171 2.20507 1.56727 2.4723 1.45325 2.76668C1.3021 3.17477 1.22275 3.60629 1.21822 4.04158C1.17816 4.77387 1.17816 4.96582 1.17816 6.80146C1.17816 8.61519 1.18497 8.8351 1.21822 9.56286C1.22502 9.99362 1.30437 10.4206 1.45325 10.8249C1.6845 11.4197 2.15606 11.8897 2.75232 12.1179C3.15596 12.2688 3.58274 12.3483 4.01362 12.353C4.74515 12.3953 4.93786 12.3953 6.77577 12.3953C8.62954 12.3953 8.8215 12.3862 9.53716 12.353C9.96823 12.3478 10.3952 12.2682 10.7992 12.1179C11.0924 12.0041 11.3587 11.8305 11.5812 11.6081C11.8037 11.3858 11.9775 11.1196 12.0915 10.8264C12.2426 10.4183 12.322 9.98606 12.3265 9.55076H12.3348C12.3673 8.8283 12.3673 8.63559 12.3673 6.78937C12.3673 4.94315 12.359 4.74893 12.3265 4.02722C12.3197 3.59681 12.2402 3.17064 12.0915 2.76668C11.9777 2.47312 11.8041 2.20647 11.5816 1.98372C11.3591 1.76097 11.0926 1.587 10.7992 1.47289C10.3949 1.32175 9.96792 1.24316 9.53716 1.23787C8.80638 1.1963 8.61519 1.1963 6.77577 1.1963ZM6.80146 10.2921C6.11041 10.2926 5.43475 10.0881 4.85994 9.70449C4.28512 9.3209 3.83697 8.77547 3.57217 8.13716C3.30738 7.49886 3.23782 6.79636 3.37231 6.11852C3.5068 5.44069 3.83928 4.81796 4.32772 4.3291C4.81615 3.84024 5.43859 3.50722 6.11631 3.37214C6.79403 3.23707 7.49659 3.30602 8.13512 3.57026C8.77365 3.83451 9.31948 4.28218 9.70356 4.85667C10.0876 5.43115 10.2927 6.10663 10.2929 6.79768C10.2917 7.72358 9.92355 8.61125 9.26913 9.26624C8.61471 9.92122 7.72735 10.2901 6.80146 10.2921ZM6.80146 4.52902C6.35306 4.52902 5.91473 4.66198 5.5419 4.9111C5.16907 5.16022 4.87848 5.5143 4.70688 5.92857C4.53529 6.34284 4.49039 6.79869 4.57787 7.23847C4.66535 7.67826 4.88128 8.08222 5.19834 8.39929C5.51541 8.71636 5.91938 8.93229 6.35916 9.01976C6.79895 9.10724 7.2548 9.06235 7.66906 8.89075C8.08333 8.71915 8.43741 8.42857 8.68653 8.05574C8.93565 7.6829 9.06862 7.24457 9.06862 6.79617C9.06722 6.19532 8.82791 5.61947 8.40304 5.1946C7.97817 4.76972 7.40232 4.53042 6.80146 4.52902ZM10.4289 3.99019C10.3219 3.98979 10.2161 3.96833 10.1174 3.92702C10.0187 3.88571 9.92911 3.82537 9.85374 3.74944C9.70153 3.5961 9.61647 3.38857 9.61727 3.1725C9.61807 2.95644 9.70467 2.74955 9.85802 2.59734C10.0114 2.44512 10.2189 2.36006 10.435 2.36086C10.651 2.36167 10.8579 2.44826 11.0101 2.60161C11.1623 2.75496 11.2474 2.96249 11.2466 3.17855C11.2458 3.39461 11.1592 3.60151 11.0058 3.75372C10.8525 3.90593 10.645 3.99099 10.4289 3.99019Z" fill="white"/>
</svg>
