<svg width="40" height="40" viewBox="0 0 40 40" fill="none" xmlns="http://www.w3.org/2000/svg">
<path d="M19.0067 20V21H20.0067L25 21L25.0018 21C25.1684 20.9997 25.3291 21.0618 25.4522 21.174C25.5753 21.2863 25.652 21.4405 25.667 21.6064C25.6821 21.7723 25.6344 21.9379 25.5335 22.0704C25.4398 22.1937 25.3062 22.2801 25.1562 22.3155L24.9556 22.3333H18.34H18.3397C18.1836 22.3334 18.0325 22.2787 17.9127 22.1788C17.802 22.0866 17.7244 21.9612 17.6911 21.8217L17.6733 21.6223V11.6667C17.6733 11.4899 17.7436 11.3203 17.8686 11.1953C17.9934 11.0705 18.1626 11.0002 18.3391 11C18.4946 11.0004 18.6451 11.0552 18.7645 11.1549C18.876 11.2481 18.9538 11.3748 18.9866 11.5158L19.0067 11.7165V20ZM20 1C22.4951 1 24.9658 1.49145 27.271 2.44629C29.5762 3.40113 31.6707 4.80066 33.435 6.56497C35.1993 8.32928 36.5989 10.4238 37.5537 12.729C38.5086 15.0342 39 17.5049 39 20C39 22.4951 38.5086 24.9658 37.5537 27.271C36.5989 29.5762 35.1993 31.6707 33.435 33.435C31.6707 35.1993 29.5762 36.5989 27.271 37.5537C24.9658 38.5085 22.4951 39 20 39C14.9609 39 10.1282 36.9982 6.56497 33.435C3.00178 29.8718 1 25.0391 1 20C1 14.9609 3.00178 10.1282 6.56497 6.56497C10.1282 3.00178 14.9609 1 20 1ZM20 2.33333C15.3145 2.33333 10.8209 4.19464 7.50778 7.50778C4.19464 10.8209 2.33333 15.3145 2.33333 20C2.33333 24.6855 4.19464 29.1791 7.50778 32.4922C10.8209 35.8054 15.3145 37.6667 20 37.6667C24.6855 37.6667 29.1791 35.8054 32.4922 32.4922C35.8054 29.1791 37.6667 24.6855 37.6667 20C37.6667 15.3145 35.8054 10.8209 32.4922 7.50778C29.1791 4.19464 24.6855 2.33333 20 2.33333Z" stroke="url(#paint0_linear_205_737)" stroke-width="2"/>
<defs>
<linearGradient id="paint0_linear_205_737" x1="20" y1="0" x2="20" y2="40" gradientUnits="userSpaceOnUse">
<stop stop-color="#48D66B"/>
<stop offset="0.46875" stop-color="#38AF56"/>
<stop offset="1" stop-color="#216933"/>
</linearGradient>
</defs>
</svg>
