<svg width="42" height="44" viewBox="0 0 42 44" fill="none" xmlns="http://www.w3.org/2000/svg">
<path d="M39.7761 2.80999C39.6601 2.52101 39.4371 2.28789 39.1536 2.15913C38.87 2.03037 38.5478 2.01587 38.2538 2.11866C37.9599 2.22146 37.7169 2.43362 37.5754 2.71101C37.4339 2.98841 37.4048 3.30968 37.4941 3.60799C39.3521 8.94798 35.6641 12.936 32.8521 15.072L31.7161 13.444C31.3341 12.898 30.4801 12.444 29.8161 12.436L23.4401 12.464C22.6612 12.4875 21.9032 12.7211 21.2461 13.14L2.4581 26.314C2.02109 26.6215 1.72373 27.0897 1.63115 27.616C1.53856 28.1422 1.65828 28.6838 1.9641 29.122L10.5021 41.338C11.1421 42.248 12.1641 42.138 13.0761 41.502L31.8641 28.326C32.4041 27.944 33.0281 27.12 33.2481 26.49L35.2441 20.2C35.4641 19.572 35.3301 18.614 34.9481 18.068L34.2561 17.076C38.0321 14.182 41.9521 9.06798 39.7761 2.80999V2.80999ZM31.0341 21.526C30.688 21.7683 30.2975 21.94 29.885 22.0313C29.4725 22.1226 29.046 22.1318 28.63 22.0582C28.214 21.9847 27.8165 21.8299 27.4603 21.6026C27.1041 21.3754 26.7962 21.0802 26.5541 20.734C26.064 20.0333 25.8719 19.1668 26.02 18.3246C26.1681 17.4824 26.6443 16.7334 27.3441 16.242C27.8927 15.8576 28.5477 15.6543 29.2175 15.6604C29.8874 15.6665 30.5386 15.8817 31.0801 16.276C30.5361 16.604 30.1621 16.796 30.0921 16.826C29.8442 16.9442 29.6438 17.1431 29.5237 17.3901C29.4036 17.6372 29.371 17.9176 29.4312 18.1856C29.4914 18.4536 29.6408 18.6932 29.855 18.8651C30.0692 19.0371 30.3354 19.1312 30.6101 19.132C30.7821 19.132 30.9581 19.092 31.1241 19.014C31.5121 18.83 31.9281 18.612 32.3621 18.354C32.4619 18.9541 32.3902 19.5702 32.1553 20.1314C31.9204 20.6926 31.5317 21.176 31.0341 21.526V21.526Z" stroke="url(#paint0_linear_205_731)" stroke-width="2.5"/>
<defs>
<linearGradient id="paint0_linear_205_731" x1="21.0004" y1="2.05084" x2="21.0004" y2="41.9999" gradientUnits="userSpaceOnUse">
<stop stop-color="#48D66B"/>
<stop offset="0.46875" stop-color="#38AF56"/>
<stop offset="1" stop-color="#216933"/>
</linearGradient>
</defs>
</svg>
