<svg width="44" height="34" viewBox="0 0 44 34" fill="none" xmlns="http://www.w3.org/2000/svg">
<path d="M3.09082 15.453H21.6345V18.5437H3.09082V15.453Z" fill="url(#paint0_linear_205_726)"/>
<path d="M0 7.72653H15.4531V10.8171H0V7.72653Z" fill="url(#paint1_linear_205_726)"/>
<path d="M43.1429 16.3895L38.507 5.57237C38.388 5.29434 38.19 5.05737 37.9376 4.89089C37.6851 4.72441 37.3893 4.63575 37.0869 4.63592H32.451V1.54531C32.451 1.13546 32.2881 0.742411 31.9983 0.45261C31.7085 0.162809 31.3155 0 30.9056 0H6.18076V3.09061H29.3603V22.4935C28.6562 22.9023 28.04 23.4466 27.5472 24.0948C27.0544 24.743 26.6948 25.4823 26.4892 26.2702H16.7785C16.4023 24.8135 15.5079 23.544 14.2627 22.6996C13.0175 21.8552 11.5071 21.494 10.0147 21.6835C8.52219 21.8731 7.15008 22.6005 6.15554 23.7293C5.161 24.8582 4.6123 26.311 4.6123 27.8155C4.6123 29.32 5.161 30.7728 6.15554 31.9016C7.15008 33.0305 8.52219 33.7579 10.0147 33.9474C11.5071 34.137 13.0175 33.7758 14.2627 32.9314C15.5079 32.087 16.4023 30.8175 16.7785 29.3608H26.4892C26.8253 30.687 27.5941 31.8633 28.6739 32.7036C29.7537 33.5438 31.0828 34 32.451 34C33.8191 34 35.1482 33.5438 36.228 32.7036C37.3078 31.8633 38.0766 30.687 38.4127 29.3608H41.7228C42.1326 29.3608 42.5257 29.198 42.8155 28.9082C43.1053 28.6184 43.2681 28.2253 43.2681 27.8155V16.9984C43.2682 16.789 43.2256 16.5818 43.1429 16.3895ZM10.8167 30.9061C10.2054 30.9061 9.60788 30.7248 9.09963 30.3852C8.59138 30.0456 8.19525 29.563 7.96133 28.9982C7.72741 28.4335 7.6662 27.8121 7.78545 27.2125C7.90471 26.613 8.19906 26.0623 8.63129 25.6301C9.06352 25.1979 9.61421 24.9035 10.2137 24.7843C10.8133 24.665 11.4347 24.7262 11.9994 24.9601C12.5641 25.1941 13.0468 25.5902 13.3864 26.0984C13.726 26.6067 13.9073 27.2042 13.9073 27.8155C13.9065 28.6349 13.5806 29.4206 13.0012 30C12.4217 30.5794 11.6361 30.9053 10.8167 30.9061ZM32.451 7.72653H36.067L39.3801 15.4531H32.451V7.72653ZM32.451 30.9061C31.8397 30.9061 31.2421 30.7248 30.7339 30.3852C30.2257 30.0456 29.8295 29.563 29.5956 28.9982C29.3617 28.4335 29.3005 27.8121 29.4197 27.2125C29.539 26.613 29.8333 26.0623 30.2656 25.6301C30.6978 25.1979 31.2485 24.9035 31.848 24.7843C32.4475 24.665 33.0689 24.7262 33.6337 24.9601C34.1984 25.1941 34.6811 25.5902 35.0207 26.0984C35.3603 26.6067 35.5416 27.2042 35.5416 27.8155C35.5407 28.6349 35.2149 29.4206 34.6354 30C34.056 30.5794 33.2704 30.9053 32.451 30.9061ZM40.1775 26.2702H38.4127C38.0723 24.9465 37.3023 23.7732 36.2234 22.9343C35.1445 22.0953 33.8177 21.6381 32.451 21.6343V18.5437H40.1775V26.2702Z" fill="url(#paint2_linear_205_726)"/>
<defs>
<linearGradient id="paint0_linear_205_726" x1="12.3627" y1="15.453" x2="12.3627" y2="18.5437" gradientUnits="userSpaceOnUse">
<stop stop-color="#48D66B"/>
<stop offset="0.46875" stop-color="#38AF56"/>
<stop offset="1" stop-color="#216933"/>
</linearGradient>
<linearGradient id="paint1_linear_205_726" x1="7.72653" y1="7.72653" x2="7.72653" y2="10.8171" gradientUnits="userSpaceOnUse">
<stop stop-color="#48D66B"/>
<stop offset="0.46875" stop-color="#38AF56"/>
<stop offset="1" stop-color="#216933"/>
</linearGradient>
<linearGradient id="paint2_linear_205_726" x1="23.9402" y1="0" x2="23.9402" y2="34" gradientUnits="userSpaceOnUse">
<stop stop-color="#48D66B"/>
<stop offset="0.46875" stop-color="#38AF56"/>
<stop offset="1" stop-color="#216933"/>
</linearGradient>
</defs>
</svg>
