<svg width="38" height="38" viewBox="0 0 38 38" fill="none" xmlns="http://www.w3.org/2000/svg">
<path d="M25.7778 16.9718C25.8884 17.0821 25.9761 17.2131 26.036 17.3574C26.0959 17.5016 26.1267 17.6563 26.1267 17.8125C26.1267 17.9687 26.0959 18.1234 26.036 18.2676C25.9761 18.4119 25.8884 18.5429 25.7778 18.6533L18.6528 25.7783C18.5425 25.8888 18.4114 25.9766 18.2672 26.0364C18.1229 26.0963 17.9682 26.1271 17.812 26.1271C17.6558 26.1271 17.5012 26.0963 17.3569 26.0364C17.2126 25.9766 17.0816 25.8888 16.9713 25.7783L13.4088 22.2158C13.2984 22.1053 13.2108 21.9743 13.1511 21.83C13.0913 21.6858 13.0605 21.5311 13.0605 21.375C13.0605 21.2189 13.0913 21.0642 13.1511 20.92C13.2108 20.7757 13.2984 20.6447 13.4088 20.5343C13.6318 20.3113 13.9342 20.186 14.2495 20.186C14.4057 20.186 14.5603 20.2168 14.7046 20.2765C14.8488 20.3363 14.9799 20.4238 15.0903 20.5343L17.812 23.2584L24.0963 16.9718C24.2066 16.8612 24.3376 16.7734 24.4819 16.7136C24.6262 16.6537 24.7809 16.6229 24.937 16.6229C25.0932 16.6229 25.2479 16.6537 25.3922 16.7136C25.5364 16.7734 25.6675 16.8612 25.7778 16.9718Z" fill="url(#paint0_linear_205_733)"/>
<path d="M8.3125 0C8.62744 0 8.92949 0.125111 9.15219 0.347811C9.37489 0.57051 9.5 0.872555 9.5 1.1875V2.375H28.5V1.1875C28.5 0.872555 28.6251 0.57051 28.8478 0.347811C29.0705 0.125111 29.3726 0 29.6875 0C30.0024 0 30.3045 0.125111 30.5272 0.347811C30.7499 0.57051 30.875 0.872555 30.875 1.1875V2.375H33.25C34.5098 2.375 35.718 2.87545 36.6088 3.76624C37.4996 4.65704 38 5.86522 38 7.125V33.25C38 34.5098 37.4996 35.718 36.6088 36.6088C35.718 37.4996 34.5098 38 33.25 38H4.75C3.49022 38 2.28204 37.4996 1.39124 36.6088C0.500445 35.718 0 34.5098 0 33.25V7.125C0 5.86522 0.500445 4.65704 1.39124 3.76624C2.28204 2.87545 3.49022 2.375 4.75 2.375H7.125V1.1875C7.125 0.872555 7.25011 0.57051 7.47281 0.347811C7.69551 0.125111 7.99756 0 8.3125 0V0ZM2.375 9.5V33.25C2.375 33.8799 2.62522 34.484 3.07062 34.9294C3.51602 35.3748 4.12011 35.625 4.75 35.625H33.25C33.8799 35.625 34.484 35.3748 34.9294 34.9294C35.3748 34.484 35.625 33.8799 35.625 33.25V9.5H2.375Z" fill="url(#paint1_linear_205_733)"/>
<defs>
<linearGradient id="paint0_linear_205_733" x1="19.5936" y1="16.6229" x2="19.5936" y2="26.1271" gradientUnits="userSpaceOnUse">
<stop stop-color="#48D66B"/>
<stop offset="0.46875" stop-color="#38AF56"/>
<stop offset="1" stop-color="#216933"/>
</linearGradient>
<linearGradient id="paint1_linear_205_733" x1="19" y1="0" x2="19" y2="38" gradientUnits="userSpaceOnUse">
<stop stop-color="#48D66B"/>
<stop offset="0.46875" stop-color="#38AF56"/>
<stop offset="1" stop-color="#216933"/>
</linearGradient>
</defs>
</svg>
