<svg width="38" height="40" viewBox="0 0 38 40" fill="none" xmlns="http://www.w3.org/2000/svg">
<path d="M18.7015 0C17.74 0 16.7846 0.323077 15.9615 0.913846L13.4138 2.69231L10.4785 3.07692H10.4308L10.3831 3.12462C9.42036 3.34202 8.53898 3.82783 7.84109 4.52571C7.14321 5.22359 6.65741 6.10498 6.44 7.06769L6.39385 7.11538V7.16308L6.00923 10.1446L4.23077 12.4523L4.18154 12.5V12.5477C3.10615 14.2662 3.05846 16.4846 4.23077 18.1246L6.05692 20.6723L6.53846 23.3185L1.58615 30.8646L0 33.2215H7.35538L9.13385 37.3554L10.24 40L11.8262 37.5954L16.6815 30.2877C17.9862 30.8231 19.4585 30.8723 20.7215 30.2877L25.5769 37.5954L27.1631 40L28.2692 37.3554L30.0477 33.2215H37.4031L35.8169 30.8646L31.0092 23.5585L31.3938 20.6738L33.1723 18.1262L33.2215 18.0785V18.0308C34.2969 16.3123 34.3446 14.1415 33.1723 12.5015L31.3938 9.95231L30.8169 7.06769H30.8646C30.8585 7.03077 30.8231 7.00615 30.8169 6.97077C30.54 4.95846 28.9477 3.32462 26.9231 3.07692H26.8738L23.9892 2.69231L21.4415 0.913846C20.6458 0.330951 19.6878 0.0114286 18.7015 0ZM18.7015 3.12462C19.0554 3.12462 19.4046 3.23231 19.6631 3.41385L22.4031 5.38462L22.74 5.62462L23.1246 5.67385L26.4908 6.15385H26.5369C27.2292 6.23077 27.7092 6.71231 27.7877 7.40462V7.5L28.4138 10.9138L28.46 11.2508L28.7015 11.5385L30.6723 14.2785C31.04 14.7892 31.0877 15.6554 30.6246 16.3938L28.4615 19.4231L28.4123 19.8077L27.9323 23.1738V23.22C27.9067 23.4604 27.8245 23.6914 27.6923 23.8938L27.5954 23.9431V23.9892C27.3667 24.2639 27.0388 24.4369 26.6831 24.4708H26.5862L23.0769 25.0969L22.6923 25.1431L22.4031 25.3846L19.6631 27.3554C19.1523 27.7231 18.2385 27.7708 17.5 27.3077L15 25.3846L14.7108 25.1446L14.2785 25.0954L10.9123 24.6154H10.8662C10.6486 24.5962 10.4389 24.5249 10.2547 24.4077C10.0705 24.2904 9.91715 24.1305 9.80769 23.9415C9.70546 23.7641 9.64005 23.5679 9.61538 23.3646V23.2692L8.99077 19.76L8.94154 19.3754L8.70154 19.0862L6.73077 16.3462C6.36308 15.8354 6.31538 14.9215 6.77846 14.1831L8.70154 11.6831L8.94154 11.3938L8.98923 10.9615L9.42308 7.74C9.42923 7.71692 9.46461 7.71692 9.47077 7.69231C9.56668 7.32196 9.75991 6.98401 10.0304 6.7135C10.3009 6.44299 10.6389 6.24976 11.0092 6.15385C11.0338 6.14769 11.0338 6.11231 11.0569 6.10615L14.2785 5.67231L14.6631 5.62615L15 5.38462L17.74 3.41385C17.9985 3.23385 18.3477 3.12462 18.7015 3.12462ZM29.3262 26.5385L31.6831 30.1446H27.9785L27.5938 31.1062L26.5369 33.5569L23.2677 28.5569L23.9877 28.0292L27.0185 27.5V27.5477C27.0538 27.5415 27.0769 27.5062 27.1138 27.5C27.9236 27.3832 28.6871 27.0511 29.3246 26.5385H29.3262ZM8.07692 26.5862C8.74496 27.1935 9.58419 27.5798 10.48 27.6923H10.5277L13.4615 28.0769L14.1338 28.6062L10.8646 33.5569L9.80769 31.1062L9.42308 30.1446H5.72154L8.07692 26.5862Z" fill="url(#paint0_linear_205_1860)"/>
<path d="M24.7063 12.2937C24.7994 12.3865 24.8733 12.4968 24.9237 12.6182C24.9741 12.7397 25 12.8699 25 13.0013C25 13.1328 24.9741 13.263 24.9237 13.3844C24.8733 13.5059 24.7994 13.6162 24.7063 13.709L18.708 19.7063C18.6151 19.7994 18.5048 19.8733 18.3833 19.9237C18.2619 19.9741 18.1317 20 18.0002 20C17.8687 20 17.7384 19.9741 17.617 19.9237C17.4955 19.8733 17.3852 19.7994 17.2924 19.7063L14.2932 16.7077C14.2002 16.6147 14.1265 16.5044 14.0762 16.383C14.0259 16.2616 14 16.1314 14 16C14 15.8686 14.0259 15.7384 14.0762 15.617C14.1265 15.4956 14.2002 15.3853 14.2932 15.2923C14.4809 15.1046 14.7355 14.9992 15.001 14.9992C15.1324 14.9992 15.2626 15.0251 15.384 15.0754C15.5055 15.1257 15.6158 15.1994 15.7088 15.2923L18.0002 17.5853L23.2907 12.2937C23.3836 12.2006 23.4939 12.1267 23.6153 12.0763C23.7368 12.0259 23.867 12 23.9985 12C24.13 12 24.2602 12.0259 24.3817 12.0763C24.5031 12.1267 24.6134 12.2006 24.7063 12.2937Z" fill="url(#paint1_linear_205_1860)"/>
<defs>
<linearGradient id="paint0_linear_205_1860" x1="18.7015" y1="0" x2="18.7015" y2="40" gradientUnits="userSpaceOnUse">
<stop stop-color="#48D66B"/>
<stop offset="0.46875" stop-color="#38AF56"/>
<stop offset="1" stop-color="#216933"/>
</linearGradient>
<linearGradient id="paint1_linear_205_1860" x1="19.5" y1="12" x2="19.5" y2="20" gradientUnits="userSpaceOnUse">
<stop stop-color="#48D66B"/>
<stop offset="0.46875" stop-color="#38AF56"/>
<stop offset="1" stop-color="#216933"/>
</linearGradient>
</defs>
</svg>
