<svg width="14" height="16" viewBox="0 0 14 16" fill="none" xmlns="http://www.w3.org/2000/svg">
<g opacity="0.6">
<path d="M7.11426 8C9.04725 8 10.6143 6.433 10.6143 4.5C10.6143 2.567 9.04725 1 7.11426 1C5.18126 1 3.61426 2.567 3.61426 4.5C3.61426 6.433 5.18126 8 7.11426 8Z" stroke="#2C302D"/>
<path d="M10.6141 9.3999H10.8605C11.3723 9.40005 11.8663 9.58706 12.2499 9.9258C12.6335 10.2645 12.8802 10.7317 12.9437 11.2395L13.2174 13.4263C13.242 13.6233 13.2245 13.8233 13.1659 14.013C13.1073 14.2027 13.0091 14.3777 12.8776 14.5266C12.7462 14.6754 12.5847 14.7945 12.4037 14.8762C12.2227 14.9578 12.0264 14.9999 11.8279 14.9999H2.4003C2.20177 14.9999 2.0055 14.9578 1.82452 14.8762C1.64353 14.7945 1.48198 14.6754 1.35057 14.5266C1.21916 14.3777 1.12091 14.2027 1.06233 14.013C1.00375 13.8233 0.986187 13.6233 1.0108 13.4263L1.28381 11.2395C1.34729 10.7315 1.5942 10.2641 1.97809 9.92534C2.36198 9.58656 2.85641 9.39971 3.36841 9.3999H3.61411" stroke="#2C302D" stroke-linecap="round" stroke-linejoin="round"/>
</g>
</svg>
