<svg width="23" height="23" viewBox="0 0 23 23" fill="none" xmlns="http://www.w3.org/2000/svg">
<path d="M13.7176 4.93183C14.6777 5.11914 15.56 5.58869 16.2517 6.28038C16.9434 6.97206 17.413 7.85442 17.6003 8.8145M13.7176 1C15.7123 1.22159 17.5724 2.11484 18.9924 3.53309C20.4124 4.95133 21.308 6.81027 21.5321 8.80467M20.5492 16.6487V19.5975C20.5503 19.8713 20.4942 20.1423 20.3845 20.3931C20.2748 20.6439 20.114 20.8691 19.9123 21.0541C19.7105 21.2392 19.4724 21.3801 19.2131 21.4678C18.9537 21.5555 18.679 21.5881 18.4063 21.5634C15.3816 21.2348 12.4761 20.2012 9.92339 18.5458C7.5484 17.0366 5.53482 15.023 4.02565 12.648C2.36444 10.0837 1.33063 7.16411 1.00798 4.1258C0.983415 3.85398 1.01572 3.58003 1.10283 3.32137C1.18995 3.06272 1.32997 2.82504 1.51397 2.62347C1.69798 2.4219 1.92194 2.26085 2.17159 2.15057C2.42125 2.0403 2.69113 1.98321 2.96406 1.98296H5.91293C6.38997 1.97826 6.85243 2.14719 7.21413 2.45825C7.57583 2.76931 7.81208 3.20128 7.87884 3.67364C8.00331 4.61735 8.23413 5.54394 8.56691 6.43575C8.69916 6.78757 8.72779 7.16993 8.64939 7.53753C8.57099 7.90512 8.38886 8.24253 8.12458 8.50979L6.87623 9.75814C8.27552 12.219 10.3131 14.2566 12.774 15.6559L14.0223 14.4075C14.2896 14.1432 14.627 13.9611 14.9946 13.8827C15.3622 13.8043 15.7445 13.8329 16.0964 13.9652C16.9882 14.298 17.9148 14.5288 18.8585 14.6533C19.336 14.7206 19.772 14.9611 20.0838 15.329C20.3955 15.697 20.5611 16.1666 20.5492 16.6487Z" stroke="white" stroke-width="1.73077" stroke-linecap="round" stroke-linejoin="round"/>
</svg>
