<svg width="16" height="16" viewBox="0 0 16 16" fill="none" xmlns="http://www.w3.org/2000/svg">
<g opacity="0.6">
<path d="M9.65504 3.67583C10.3084 3.80331 10.9089 4.12286 11.3797 4.59359C11.8504 5.06432 12.1699 5.66481 12.2974 6.3182M9.65504 1C11.0125 1.15081 12.2784 1.75871 13.2448 2.72391C14.2112 3.6891 14.8207 4.95421 14.9732 6.31151M14.3043 11.6498V13.6567C14.305 13.843 14.2669 14.0274 14.1922 14.1981C14.1176 14.3688 14.0081 14.522 13.8709 14.648C13.7336 14.7739 13.5715 14.8698 13.395 14.9295C13.2185 14.9892 13.0315 15.0113 12.846 14.9946C10.7875 14.7709 8.81014 14.0675 7.07287 12.9409C5.45655 11.9138 4.0862 10.5434 3.05913 8.92714C1.92858 7.18196 1.22501 5.19502 1.00543 3.12728C0.988713 2.94229 1.0107 2.75585 1.06998 2.57982C1.12927 2.4038 1.22456 2.24204 1.34979 2.10486C1.47501 1.96768 1.62743 1.85808 1.79733 1.78303C1.96724 1.70798 2.15091 1.66913 2.33665 1.66896H4.34352C4.66817 1.66576 4.98291 1.78072 5.22906 1.99242C5.47522 2.20411 5.636 2.49809 5.68144 2.81956C5.76614 3.4618 5.92323 4.0924 6.14971 4.69933C6.23971 4.93877 6.25919 5.19898 6.20584 5.44915C6.15248 5.69932 6.02853 5.92895 5.84867 6.11083L4.9991 6.9604C5.9514 8.63517 7.33808 10.0218 9.01284 10.9741L9.86241 10.1246C10.0443 9.94471 10.2739 9.82076 10.5241 9.76741C10.7743 9.71405 11.0345 9.73353 11.2739 9.82354C11.8808 10.05 12.5114 10.2071 13.1537 10.2918C13.4786 10.3377 13.7754 10.5013 13.9876 10.7517C14.1997 11.0021 14.3124 11.3217 14.3043 11.6498Z" stroke="#2C302D" stroke-linecap="round" stroke-linejoin="round"/>
</g>
</svg>
