<svg width="18" height="18" viewBox="0 0 18 18" fill="none" xmlns="http://www.w3.org/2000/svg">
<path d="M11.2118 4.34379C11.9585 4.48948 12.6448 4.85469 13.1828 5.39267C13.7207 5.93064 14.086 6.61692 14.2316 7.36365M11.2118 1.28571C12.7632 1.45806 14.2099 2.15281 15.3144 3.25588C16.4189 4.35896 17.1154 5.8048 17.2897 7.35601M16.5252 13.4569V15.7505C16.5261 15.9634 16.4825 16.1741 16.3972 16.3692C16.3119 16.5643 16.1868 16.7394 16.0299 16.8834C15.873 17.0273 15.6877 17.1369 15.486 17.2051C15.2843 17.2733 15.0706 17.2987 14.8586 17.2795C12.506 17.0239 10.2462 16.22 8.26073 14.9324C6.41351 13.7586 4.8474 12.1925 3.6736 10.3453C2.38154 8.35081 1.57747 6.08002 1.32652 3.71688C1.30741 3.50547 1.33254 3.29239 1.40029 3.09122C1.46805 2.89005 1.57695 2.70518 1.72007 2.54841C1.86318 2.39163 2.03737 2.26636 2.23155 2.1806C2.42573 2.09483 2.63564 2.05043 2.84792 2.05023H5.14148C5.51251 2.04658 5.87221 2.17796 6.15353 2.4199C6.43485 2.66183 6.6186 2.99781 6.67052 3.3652C6.76733 4.0992 6.94686 4.81988 7.20569 5.51351C7.30855 5.78715 7.33081 6.08454 7.26984 6.37045C7.20886 6.65635 7.06721 6.91879 6.86165 7.12665L5.89071 8.09759C6.97905 10.0116 8.56383 11.5964 10.4778 12.6847L11.4488 11.7138C11.6567 11.5082 11.9191 11.3666 12.205 11.3056C12.4909 11.2446 12.7883 11.2669 13.0619 11.3697C13.7556 11.6286 14.4762 11.8081 15.2102 11.9049C15.5816 11.9573 15.9208 12.1444 16.1632 12.4305C16.4057 12.7167 16.5345 13.082 16.5252 13.4569Z" stroke="white" stroke-width="1.28571" stroke-linecap="round" stroke-linejoin="round"/>
</svg>
