<svg width="16" height="14" viewBox="0 0 16 14" fill="none" xmlns="http://www.w3.org/2000/svg">
<path d="M14.0509 0.00139558C13.8635 0.0150298 13.6796 0.0589944 13.5063 0.131574H13.504C13.3376 0.19754 12.5466 0.530284 11.344 1.03465L7.0347 2.84957C3.94251 4.15136 0.902864 5.4333 0.902864 5.4333L0.939057 5.41929C0.939057 5.41929 0.729487 5.48818 0.510576 5.6382C0.375335 5.72426 0.258959 5.83686 0.168491 5.96919C0.0610793 6.12681 -0.0253175 6.3679 0.00678941 6.61717C0.059328 7.03865 0.332529 7.29142 0.528673 7.43093C0.727152 7.57221 0.916291 7.63817 0.916291 7.63817H0.920961L3.77147 8.59846C3.89932 9.00884 4.64011 11.4443 4.81816 12.0053C4.92323 12.3404 5.02539 12.5499 5.15324 12.7099C5.21511 12.7916 5.2875 12.8599 5.37448 12.9148C5.4197 12.9411 5.46791 12.9619 5.51809 12.9767L5.4889 12.9697C5.49765 12.972 5.50466 12.979 5.51108 12.9813C5.53443 12.9878 5.55019 12.9901 5.57997 12.9948C6.03121 13.1314 6.39373 12.8512 6.39373 12.8512L6.41416 12.8348L8.09715 11.3024L10.9179 13.4665L10.9821 13.4939C11.5699 13.7519 12.1654 13.6083 12.48 13.355C12.797 13.0998 12.9202 12.7735 12.9202 12.7735L12.9406 12.721L15.1204 1.5542C15.1823 1.27867 15.198 1.02064 15.1297 0.77021C15.0593 0.516756 14.8967 0.298768 14.6738 0.159011C14.4867 0.0452448 14.2697 -0.00966758 14.0509 0.00139558ZM13.992 1.19811C13.9896 1.23488 13.9966 1.2308 13.9803 1.30143V1.30786L11.821 12.3585C11.8116 12.3742 11.7959 12.4087 11.7527 12.4431C11.7071 12.4793 11.6709 12.5021 11.4812 12.4268L8.03118 9.78175L5.94715 11.6813L6.38497 8.88509L12.0218 3.63123C12.2541 3.41524 12.1765 3.3697 12.1765 3.3697C12.1928 3.10467 11.8256 3.29206 11.8256 3.29206L4.71775 7.69538L4.71541 7.6837L1.30858 6.53661V6.53428L1.29982 6.53253C1.30579 6.53054 1.31164 6.5282 1.31734 6.52552L1.33602 6.51618L1.35411 6.50976C1.35411 6.50976 4.3961 5.22782 7.48828 3.92603C9.03642 3.27397 10.5962 2.61723 11.7959 2.11053C12.9955 1.60674 13.8822 1.23722 13.9324 1.21737C13.9803 1.19869 13.9575 1.19869 13.992 1.19869V1.19811Z" fill="white"/>
</svg>
