<svg width="16" height="17" viewBox="0 0 16 17" fill="none" xmlns="http://www.w3.org/2000/svg">
<path d="M7.49036 0.00242438C6.1533 0.0185648 3.27874 0.238283 1.67095 1.71331C0.474993 2.89833 0.0574237 4.65035 0.00848173 6.81682C-0.0321297 8.97547 -0.0810717 13.0293 3.82648 14.1331V15.8143C3.82648 15.8143 3.80201 16.487 4.24665 16.625C4.79438 16.7984 5.10626 16.2808 5.62692 15.7248L6.59795 14.6267C9.27153 14.849 11.3193 14.3367 11.5551 14.2607C12.0977 14.0873 15.1534 13.6968 15.6527 9.64243C16.1651 5.45529 15.4033 2.81711 14.0283 1.62376H14.0199C13.605 1.24159 11.9373 0.0263747 8.21147 0.0128376C8.21147 0.0128376 7.935 -0.00590617 7.49036 0.00190372V0.00242438ZM7.53618 1.17964C7.91574 1.17703 8.14639 1.19317 8.14639 1.19317C11.3 1.2015 12.8052 2.15067 13.1603 2.47035C14.3183 3.46273 14.915 5.8411 14.4781 9.33681C14.0632 12.7263 11.5848 12.9408 11.1261 13.0871C10.9309 13.1496 9.12731 13.5942 6.85515 13.4479C6.85515 13.4479 5.16301 15.49 4.63402 16.0158C4.55019 16.108 4.45231 16.1351 4.38983 16.1215C4.30028 16.0997 4.2732 15.9888 4.27841 15.8367L4.29455 13.0465C0.980553 12.1301 1.1758 8.67245 1.21121 6.86628C1.25182 5.06011 1.59077 3.58248 2.5998 2.58177C3.9582 1.35354 6.39906 1.18797 7.53513 1.17964H7.53618ZM7.78609 2.98528C7.75882 2.98501 7.73176 2.99013 7.70647 3.00037C7.68119 3.0106 7.65818 3.02573 7.63877 3.0449C7.61936 3.06407 7.60394 3.08688 7.59339 3.11204C7.58284 3.13719 7.57738 3.16419 7.57731 3.19146C7.57731 3.30809 7.67207 3.40025 7.78609 3.40025C8.30233 3.39043 8.8154 3.48291 9.29572 3.67236C9.77604 3.8618 10.2141 4.14447 10.5846 4.50405C11.3412 5.2387 11.7098 6.22587 11.7238 7.51658C11.7238 7.63061 11.816 7.72537 11.9326 7.72537V7.71704C11.9876 7.71718 12.0404 7.69558 12.0795 7.65696C12.1186 7.61834 12.1409 7.56582 12.1414 7.51085C12.1667 6.90332 12.0682 6.297 11.8518 5.72872C11.6355 5.16045 11.3059 4.6421 10.883 4.20519C10.0588 3.39973 9.01433 2.98476 7.78609 2.98476V2.98528ZM5.0417 3.46273C4.89432 3.44119 4.74402 3.47078 4.6158 3.54655H4.60486C4.30718 3.72105 4.03902 3.94159 3.81034 4.19998C3.6203 4.4197 3.51721 4.64202 3.49013 4.85601C3.47399 4.98357 3.48492 5.11114 3.52293 5.23297L3.53647 5.2413C3.75046 5.87026 4.03006 6.47526 4.37161 7.04486C4.81158 7.84509 5.35303 8.58517 5.98253 9.24673L6.00127 9.27381L6.03095 9.29568L6.04969 9.31754L6.07156 9.33629C6.73552 9.96763 7.47739 10.5116 8.27916 10.955C9.19552 11.4538 9.75158 11.6897 10.0853 11.7876V11.7928C10.1832 11.8224 10.2722 11.836 10.3618 11.836C10.6462 11.8151 10.9155 11.6997 11.1266 11.508C11.3839 11.2792 11.6019 11.01 11.7723 10.7108V10.7056C11.9321 10.4047 11.878 10.1199 11.6473 9.92723C11.1854 9.52346 10.6859 9.16483 10.1556 8.85624C9.80052 8.66359 9.43971 8.78022 9.2934 8.97547L8.98153 9.36857C8.82168 9.56381 8.53116 9.53674 8.53116 9.53674L8.52283 9.54195C6.35636 8.98849 5.77843 6.79495 5.77843 6.79495C5.77843 6.79495 5.75136 6.49661 5.95181 6.34458L6.3423 6.0301C6.52922 5.87807 6.65939 5.51777 6.45893 5.16216C6.15247 4.63117 5.79462 4.13154 5.39054 3.67047C5.3022 3.56177 5.17826 3.48782 5.04066 3.46169L5.0417 3.46273ZM8.14639 4.08127C7.86992 4.08127 7.86992 4.49884 8.14899 4.49884C8.49277 4.50442 8.83209 4.57769 9.14754 4.71446C9.46299 4.85124 9.74839 5.04884 9.98744 5.29597C10.2055 5.53652 10.3731 5.81839 10.4802 6.12488C10.5874 6.43137 10.6319 6.75625 10.6112 7.08027C10.6121 7.1351 10.6345 7.18739 10.6735 7.22592C10.7126 7.26446 10.7651 7.28619 10.82 7.28645L10.8283 7.29738C10.8836 7.29698 10.9364 7.27485 10.9755 7.23578C11.0146 7.19671 11.0367 7.14385 11.0371 7.0886C11.0558 6.26127 10.7986 5.56723 10.2941 5.01117C9.78699 4.4551 9.07941 4.14323 8.17607 4.08127H8.14639ZM8.48846 5.20381C8.20366 5.19548 8.19273 5.62138 8.47493 5.62971C9.16115 5.66512 9.49438 6.01188 9.53811 6.72518C9.53906 6.77932 9.56117 6.83095 9.59971 6.86899C9.63824 6.90704 9.69014 6.92849 9.74429 6.92876H9.75262C9.78046 6.92756 9.80779 6.92084 9.833 6.90897C9.85821 6.8971 9.88081 6.88033 9.89947 6.85963C9.91813 6.83893 9.93248 6.81473 9.94169 6.78843C9.95089 6.76212 9.95476 6.73425 9.95308 6.70644C9.90413 5.77654 9.39701 5.25275 8.49679 5.20433H8.48846V5.20381Z" fill="white"/>
</svg>
